<svg xmlns="http://www.w3.org/2000/svg" viewBox="0 0 566.92929 130.02007">
  <defs>
    <style>
      .cls-1 {
        fill: #333333;
      }
    </style>
  </defs>
  <title>자산 1</title>
  <g id="레이어_2" data-name="레이어 2">
    <g id="Layer_1" data-name="Layer 1">
      <g>
        <path class="cls-1" d="M460.73829,60.47329V47.46409c0-32.25-23.2637-46.8545-44.8223-46.8545-29.7568,0-50.4004,23.5859-50.4004,51.9472,0,30.249,19.4199,48.9004,43.65631,48.9004,17.708,0,27.791-7.0361,34.31539-13.3926a56.38639,56.38639,0,0,0,4.9502,7.3389c2.4951,3.0068,5.2763,4.4189,8.5078,4.4189a14.36835,14.36835,0,0,0,5.665-1.2861c3.9151-1.7031,6.4307-4.1953,7.2422-7.2822a9.90443,9.90443,0,0,0-1.4629-8.0596c-4.47069-6.6875-7.6513-16.0332-7.6513-22.7212m-26.3936-10.4087c-.9287,16.2159-9.917,30.2032-25.4014,28.7569-12.0556-1.086-19.1435-13.9522-16.9345-29.8199,2.2412-15.8491,12.1299-26.978,24.8506-25.9321,12.455.6514,18.3144,11.106,17.4853,26.9951"/>
        <path class="cls-1" d="M499.69039,111.23749c-4.7764,12.2637-3.0273,15.6816,1.7774,17.5849a18.75072,18.75072,0,0,0,24.0214-10.7568l38.6231-99.2905c4.76461-12.2495,3.0264-15.6646-1.792-17.5708a18.73177,18.73177,0,0,0-24.0068,10.7578L524.3349,47.93819l-20.26951-38.063a18.775,18.775,0,0,0-25.0644-7.8306c-4.5694,2.4351-5.919,5.9732.206,17.4653l32.458,60.9864Z"/>
        <path class="cls-1" d="M340.625.63249c-8.6592,0-13.4063,3.8672-14.7754,10.9634l-10,56.1601a.31671.31671,0,0,1-.6152.0225L302.26759,14.131c-2.4229-9.3256-5.1924-13.4985-13.1289-13.4985-7.9571,0-10.71779,4.1729-13.1514,13.4985L263.022,67.77849a.31648.31648,0,0,1-.6148-.0225l-10-56.1601c-1.3506-7.0962-6.106-10.9634-14.7671-10.9634-6.1348,0-11.7178,3.2925-10.5117,8.5913l17.9683,79.3096c1.686,7.4648,8.3935,12.0664,16.6977,12.0664,8.6509,0,15.523-4.8867,17.395-12.0664l9.9493-41.9898,9.9394,41.9898c1.8809,7.1797,8.7432,12.0664,17.4023,12.0664,8.294,0,14.9932-4.6016,16.69151-12.0664l17.97649-79.3096c1.1836-5.2988-4.3867-8.5913-10.5234-8.5913"/>
        <path class="cls-1" d="M161.1714.60959c-33.6944,0-51.3028,22.5854-51.3028,50.4155,0,27.8315,17.6084,50.4321,51.3028,50.4321,33.7046,0,51.30419-22.6006,51.30419-50.4321,0-27.8301-17.59959-50.4155-51.30419-50.4155m0,78.3955c-14.3672,0-24.9517-10.4092-24.9517-27.98,0-17.5469,10.5845-27.9785,24.9517-27.9785,14.3769,0,24.9516,10.4316,24.9516,27.9785,0,17.5708-10.5747,27.98-24.9516,27.98"/>
        <path class="cls-1" d="M85.8686,70.90549c-9.5112,8.9169-24.8486,10.9228-34.0014,9.6943-13.0181-1.7207-25.5235-9.8604-25.5235-29.5747,0-17.5469,10.5933-27.9785,24.9605-27.9785,9.5928,0,15.6875,3.1093,22.5996,8.5283,8.5683,6.7275,19.8589-2.0464,18.5298-10.3462C90.9917,12.04169,74.3139.60959,51.3042.60959,17.6113.60959,0,23.195,0,51.02509c0,26.2593,15.5449,50.4321,53.7392,50.4321,20.1646,0,34.6646-8.3223,36.751-19.6289a11.13562,11.13562,0,0,0-4.6216-10.9228"/>
      </g>
    </g>
  </g>
</svg>
