<svg xmlns="http://www.w3.org/2000/svg" width="434.96078pt" height="225pt" viewBox="0 0 434.96079 225"><defs><clipPath id="a"><path d="M-32115.1 33330.67H32767v-65289.8h-64882.1Z"/></clipPath><clipPath id="b"><path d="M56 513.87h398v-106H56Z"/></clipPath><clipPath id="c"><path d="M56 513.87h398v-106H56Z"/></clipPath></defs><path fill="#200809" d="M377.09 177.674c-3.32-2.985-7.58-4.884-12.73-4.07-5.13.84-7.865 4.314-7.982 7.489-.128 3.256.977 5.02 6.604 8.683 5.617 3.636 14.129 8.574 16.492 13.865 2.364 5.237 1.802 12.807-5.703 17.881-8.404 5.671-20.446 3.61-26.963-.515v-7.082c2.33 3.554 7.206 6.485 11.998 7.082 8.287 1.058 12.517-3.717 12.667-7.978.19-5.426-3.636-8.33-7.59-10.907-3.953-2.551-10.948-7.001-14.077-10.61-3.115-3.582-2.776-9.063-1.514-11.939 1.24-2.876 4.366-7.055 11.171-8.737 6.805-1.655 13.673-.57 17.626.977M79.366 170.727H66.7v.625c3.275.542 2.64 3.5 1.94 5.155l-18.855 47.566h4.727l7.662-19.835h20.32l6.34 16.525c.697 1.926 2.17 3.31 5.065 3.31h6.455zM63.298 201.09l9.032-23.66 8.998 23.66M202.786 170.727H190.14v.625c3.243.542 2.627 3.5 1.937 5.155l-18.877 47.566h4.738l7.654-19.835h20.33l6.327 16.525c.71 1.926 2.195 3.31 5.077 3.31h6.455zm-16.07 30.363 9.042-23.66 8.997 23.66M324.718 170.727h-13.144v.625c2.63.678 3.552 2.523 3.552 4.884v47.837h9.592M434.96 224.073v-3.392h-23.899V197.7h20.785v-3.42H411.06v-20.377h21.686v-3.175h-34.84v.597c2.629.706 3.57 2.551 3.57 4.912v47.837M261.409 224.073c25.343 0 30.802-17.312 30.802-27.514 0-15.44-12.964-25.832-28.428-25.832H239.66v.625c2.51.65 3.465 2.387 3.549 4.558 0 .054.01.081.01.109v48.054zm.287-3.039h-8.883v-47.159h7.76c14.096 0 22.28 8.819 22.28 23.525 0 14.707-10.357 23.634-21.157 23.634M120.705 224.073h9.592v-25.126h9.18l5.215-.841c6.58-1.791 12.071-6.458 12.071-13.567 0-6.54-4.686-13.784-16.196-13.784h-23.425v.597c2.608.678 3.541 2.496 3.563 4.802zm15.442-28.11h-5.85v-22.06h6.2c6.393 0 11.087 4.26 11.087 10.554 0 7.164-4.27 11.505-11.437 11.505M22.248 170.727H0v.625c2.64.678 3.572 2.523 3.572 4.884v47.837h9.582v-24.99h6.963c8.946 0 18.316-5.264 18.316-14.571 0-6.54-4.674-13.785-16.185-13.785m-4.41 25.208h-4.684v-22.06h5.024c6.402 0 11.076 4.26 11.076 10.582 0 7.164-4.26 11.478-11.415 11.478" style="stroke-width:2.71341"/><path fill="#a69265" d="M192.523 137.76V99.69c-10.31-1.546-19.5-5.806-26.58-12.291-10.504-9.66-15.591-23.444-14.373-38.856 1.028-12.78 7.08-24.665 17.075-33.51C180.24 4.775 194.125 0 212.355 0c39.272 0 71.206 31.014 71.206 69.165 0 18.044-7.112 35.111-20.022 48.081-13.936 14.056-33.25 21.463-55.858 21.463-6.719 0-13.915-.868-15.158-.95m17.575-104.438c21.295.895 34.574 13.947 33.98 33.402-.55 17.528-13.673 30.471-33.44 33.022-2.035.271-4.08.434-6.083.542v26.836c1.101.027 2.206.054 3.264.054 19.238 0 35.53-6.213 47.156-17.935 10.78-10.8 16.704-25.018 16.704-40.077 0-31.774-26.602-57.633-59.323-57.633h-.945C180.59 12.02 165 31.53 163.57 49.465c-.934 11.804 2.838 22.25 10.639 29.44 4.93 4.505 11.087 7.517 18.315 8.9V33.647c6.466-.461 11.758-.57 17.575-.325m-5.532 11.532v43.713a62.679 62.679 0 0 0 4.471-.407c10.846-1.384 22.578-7.842 23.002-21.79.401-12.996-7.78-20.784-22.44-21.38-1.737-.055-3.305-.11-5.033-.136" style="stroke-width:2.71341"/><path fill="#1f0608" d="M130.36 173.984h6.21c6.393 0 11.087 4.26 11.087 10.555 0 7.19-4.27 11.532-11.426 11.532h-5.872zm26.488 10.663c0-6.54-4.686-13.811-16.197-13.811h-23.465v.597c2.607.651 3.54 2.47 3.57 4.776v48.027h9.603v-25.153h4.898l13.165 21.788c1.325 1.954 3.243 3.365 6.157 3.365h7.207l-16.503-26.157c6.36-1.9 11.565-6.513 11.565-13.432" style="stroke-width:2.71341"/></svg>